<mxfile host="65bd71144e">
    <diagram id="w91AA-7LpXRxdjO6SVYn" name="Page-1">
        <mxGraphModel dx="843" dy="686" grid="0" gridSize="10" guides="1" tooltips="1" connect="1" arrows="1" fold="1" page="1" pageScale="1" pageWidth="850" pageHeight="1100" background="#ffffff" math="0" shadow="0">
            <root>
                <mxCell id="0"/>
                <mxCell id="1" parent="0"/>
                <mxCell id="47" value="Text" style="text;strokeColor=none;align=center;fillColor=none;html=1;verticalAlign=middle;whiteSpace=wrap;rounded=0;" vertex="1" parent="1">
                    <mxGeometry x="585" y="617" width="60" height="30" as="geometry"/>
                </mxCell>
                <mxCell id="48" value="" style="rounded=0;whiteSpace=wrap;html=1;strokeWidth=4;fillColor=#FFFFFF;strokeColor=#000000;" vertex="1" parent="1">
                    <mxGeometry x="29" y="486" width="693" height="280" as="geometry"/>
                </mxCell>
                <mxCell id="60" value="&lt;b&gt;&lt;font style=&quot;font-size: 14px;&quot; color=&quot;#000000&quot;&gt;Data Produk Keluar&amp;nbsp;&lt;/font&gt;&lt;/b&gt;" style="rounded=0;whiteSpace=wrap;html=1;strokeColor=#000000;strokeWidth=4;fillColor=#FFFFFF;" vertex="1" parent="1">
                    <mxGeometry x="58" y="513" width="120" height="47" as="geometry"/>
                </mxCell>
                <mxCell id="64" value="&lt;b&gt;Nomor&lt;/b&gt;" style="rounded=0;whiteSpace=wrap;html=1;strokeColor=#000000;strokeWidth=4;fontSize=14;fontColor=#000000;fillColor=#FFFFFF;" vertex="1" parent="1">
                    <mxGeometry x="42" y="635" width="99" height="34" as="geometry"/>
                </mxCell>
                <mxCell id="67" value="&lt;b&gt;Nomor Produk Keluar&lt;/b&gt;" style="rounded=0;whiteSpace=wrap;html=1;strokeColor=#000000;strokeWidth=4;fontSize=14;fontColor=#000000;fillColor=#FFFFFF;" vertex="1" parent="1">
                    <mxGeometry x="154" y="635" width="99" height="34" as="geometry"/>
                </mxCell>
                <mxCell id="68" value="&lt;b&gt;Aksi&lt;/b&gt;" style="rounded=0;whiteSpace=wrap;html=1;strokeColor=#000000;strokeWidth=4;fontSize=14;fontColor=#000000;fillColor=#FFFFFF;" vertex="1" parent="1">
                    <mxGeometry x="597" y="635" width="99" height="34" as="geometry"/>
                </mxCell>
                <mxCell id="69" value="&lt;b&gt;Perihal&lt;/b&gt;" style="rounded=0;whiteSpace=wrap;html=1;strokeColor=#000000;strokeWidth=4;fontSize=14;fontColor=#000000;fillColor=#FFFFFF;" vertex="1" parent="1">
                    <mxGeometry x="264" y="635" width="99" height="34" as="geometry"/>
                </mxCell>
                <mxCell id="70" value="&lt;b&gt;Tujuan Produk&lt;/b&gt;" style="rounded=0;whiteSpace=wrap;html=1;strokeColor=#000000;strokeWidth=4;fontSize=14;fontColor=#000000;fillColor=#FFFFFF;" vertex="1" parent="1">
                    <mxGeometry x="375.5" y="635" width="99" height="34" as="geometry"/>
                </mxCell>
                <mxCell id="71" value="&lt;b&gt;Tanggal Keluar&lt;/b&gt;" style="rounded=0;whiteSpace=wrap;html=1;strokeColor=#000000;strokeWidth=4;fontSize=14;fontColor=#000000;fillColor=#FFFFFF;" vertex="1" parent="1">
                    <mxGeometry x="486" y="635" width="99" height="34" as="geometry"/>
                </mxCell>
            </root>
        </mxGraphModel>
    </diagram>
</mxfile>